<svg xmlns="http://www.w3.org/2000/svg" viewBox="0 0 200 200" fill="none">
  <!-- Escudo base -->
  <path d="M100 10 L180 50 L180 130 C180 160 140 190 100 190 C60 190 20 160 20 130 L20 50 Z" fill="#87CEEB" stroke="#2E5C8A" stroke-width="3"/>
  
  <!-- Sol -->
  <circle cx="100" cy="40" r="15" fill="#FFD700"/>
  <path d="M100 20 L100 25 M115 40 L110 40 M100 60 L100 55 M85 40 L90 40 M107 27 L105 32 M113 47 L108 45 M93 53 L95 48 M87 47 L92 45 M93 27 L95 32 M87 33 L92 35 M107 53 L105 48 M113 33 L108 35" stroke="#FFD700" stroke-width="2" stroke-linecap="round"/>
  
  <!-- Planta de arroz (izquierda) -->
  <path d="M60 90 Q60 70 55 60 M60 90 Q65 75 70 65" stroke="#228B22" stroke-width="3" fill="none"/>
  <ellipse cx="53" cy="58" rx="3" ry="5" fill="#228B22"/>
  <ellipse cx="58" cy="55" rx="3" ry="5" fill="#228B22"/>
  <ellipse cx="68" cy="63" rx="3" ry="5" fill="#228B22"/>
  <ellipse cx="72" cy="68" rx="3" ry="5" fill="#228B22"/>
  
  <!-- Antorcha -->
  <rect x="95" y="100" width="10" height="40" rx="2" fill="#D4A574"/>
  <path d="M100 95 Q90 85 95 75 Q97 80 100 82 Q103 80 105 75 Q110 85 100 95 Z" fill="#FF6B00"/>
  <path d="M100 82 Q95 78 97 72 Q99 75 100 77 Q101 75 103 72 Q105 78 100 82 Z" fill="#FFD700"/>
  
  <!-- Manos entrelazadas (simplificadas) -->
  <path d="M75 110 Q70 115 70 125 L75 130" stroke="#D4A574" stroke-width="5" fill="none" stroke-linecap="round"/>
  <path d="M125 110 Q130 115 130 125 L125 130" stroke="#D4A574" stroke-width="5" fill="none" stroke-linecap="round"/>
  <path d="M75 130 Q85 135 100 135 Q115 135 125 130" stroke="#D4A574" stroke-width="5" fill="none" stroke-linecap="round"/>
  
  <!-- Planta de arroz (derecha) -->
  <path d="M140 90 Q140 70 135 60 M140 90 Q145 75 150 65" stroke="#228B22" stroke-width="3" fill="none"/>
  <ellipse cx="133" cy="58" rx="3" ry="5" fill="#228B22"/>
  <ellipse cx="138" cy="55" rx="3" ry="5" fill="#228B22"/>
  <ellipse cx="148" cy="63" rx="3" ry="5" fill="#228B22"/>
  <ellipse cx="152" cy="68" rx="3" ry="5" fill="#228B22"/>
  
  <!-- Corona de laurel (simplificada) -->
  <path d="M40 60 Q30 80 30 100 Q30 120 40 140" stroke="#228B22" stroke-width="4" fill="none"/>
  <path d="M160 60 Q170 80 170 100 Q170 120 160 140" stroke="#228B22" stroke-width="4" fill="none"/>
  
  <!-- Hojas de laurel -->
  <ellipse cx="35" cy="70" rx="5" ry="8" fill="#228B22" transform="rotate(-30 35 70)"/>
  <ellipse cx="32" cy="85" rx="5" ry="8" fill="#228B22" transform="rotate(-20 32 85)"/>
  <ellipse cx="31" cy="100" rx="5" ry="8" fill="#228B22" transform="rotate(-10 31 100)"/>
  <ellipse cx="32" cy="115" rx="5" ry="8" fill="#228B22" transform="rotate(20 32 115)"/>
  <ellipse cx="35" cy="130" rx="5" ry="8" fill="#228B22" transform="rotate(30 35 130)"/>
  
  <ellipse cx="165" cy="70" rx="5" ry="8" fill="#228B22" transform="rotate(30 165 70)"/>
  <ellipse cx="168" cy="85" rx="5" ry="8" fill="#228B22" transform="rotate(20 168 85)"/>
  <ellipse cx="169" cy="100" rx="5" ry="8" fill="#228B22" transform="rotate(10 169 100)"/>
  <ellipse cx="168" cy="115" rx="5" ry="8" fill="#228B22" transform="rotate(-20 168 115)"/>
  <ellipse cx="165" cy="130" rx="5" ry="8" fill="#228B22" transform="rotate(-30 165 130)"/>
  
  <!-- Banner inferior -->
  <path d="M30 150 L50 145 L100 150 L150 145 L170 150 L170 165 L30 165 Z" fill="#87CEEB" stroke="#2E5C8A" stroke-width="2"/>
  <text x="100" y="162" font-family="Arial, sans-serif" font-size="11" font-weight="bold" text-anchor="middle" fill="#2E5C8A">MOCHUMI</text>
</svg>
